<?xml version="1.0" encoding="utf-8"?>
<!-- Generator: Adobe Illustrator 23.0.3, SVG Export Plug-In . SVG Version: 6.00 Build 0)  -->
<svg version="1.1" id="Layer_1" xmlns="http://www.w3.org/2000/svg" xmlns:xlink="http://www.w3.org/1999/xlink" x="0px" y="0px"
	 viewBox="0 0 125 125" style="enable-background:new 0 0 125 125;" xml:space="preserve">
<style type="text/css">
	.st0{fill:#4B4D4F;}
</style>
<g>
	<path class="st0" d="M75.5,46c0-0.2-0.1-0.4-0.1-0.6c0-0.1-0.1-0.3-0.1-0.4l-0.1-0.5c0-0.1-0.1-0.3-0.1-0.4
		c-0.1-0.2-0.1-0.4-0.2-0.5l-0.2-0.4c0-0.1-0.1-0.2-0.1-0.2c-0.1-0.2-0.2-0.5-0.3-0.7l-0.1-0.3c0,0,0-0.1-0.1-0.1
		c-0.2-0.3-0.3-0.6-0.5-0.8c0,0-0.1-0.1-0.1-0.2c-0.2-0.4-0.5-0.7-0.7-0.9l-0.1-0.1c-0.2-0.3-0.5-0.6-0.8-0.9l-0.1-0.1
		c-2.4-2.4-5.7-3.8-9.2-3.8l-0.2,0c-7.2,0-13.1,5.9-13.1,13.1c0,7.2,5.9,13.1,13.1,13.1l0.2,0c3.5,0,6.7-1.4,9.2-3.9
		c0.3-0.3,0.6-0.6,0.8-0.9c0-0.1,0.1-0.1,0.1-0.1c0.2-0.3,0.4-0.6,0.6-0.9c0.1-0.1,0.1-0.2,0.1-0.2c0.2-0.3,0.4-0.6,0.5-0.9
		c0,0,0-0.1,0.1-0.1c0-0.1,0.1-0.1,0.1-0.2l0.1-0.1c0.1-0.2,0.2-0.4,0.3-0.7c0-0.1,0.1-0.2,0.1-0.2l0.2-0.4c0.1-0.2,0.1-0.3,0.2-0.5
		c0-0.1,0.1-0.2,0.1-0.4l0.1-0.5c0-0.1,0.1-0.3,0.1-0.4c0-0.2,0.1-0.4,0.1-0.6l0.1-0.5c0-0.1,0-0.2,0-0.3c0-0.4,0.1-0.9,0.1-1.3
		c0-0.4,0-0.9-0.1-1.3c0-0.1,0-0.2,0-0.3L75.5,46z"/>
	<path class="st0" d="M85.4,65.2c0.1-0.2,0.3-0.4,0.5-0.7c0,0,0-0.1,0.1-0.1c0.3-0.7,0.9-1.6,0.9-1.7c2.1-4.2,3.2-8.7,3.2-13.4
		c0-0.5,0-1,0-1.5c0-0.2,0-0.4,0-0.6l0-0.4c0-0.1,0-0.3,0-0.4c0-0.2,0-0.4-0.1-0.5l0-0.4c0-0.2,0-0.4-0.1-0.5c0-0.1,0-0.3-0.1-0.4
		l-0.1-0.4c0-0.2-0.1-0.4-0.1-0.6c0-0.2-0.1-0.3-0.1-0.5l-0.1-0.4c0-0.2-0.1-0.3-0.1-0.5c-0.1-0.2-0.1-0.4-0.2-0.6l-0.1-0.4
		c0-0.1-0.1-0.2-0.1-0.3c-0.1-0.2-0.1-0.5-0.2-0.7l-0.1-0.3c0-0.1-0.1-0.2-0.1-0.3c-0.1-0.2-0.2-0.5-0.2-0.7l-0.1-0.3
		c0-0.1-0.1-0.2-0.1-0.3c-0.1-0.2-0.2-0.5-0.3-0.7l-0.1-0.3c0-0.1-0.1-0.2-0.1-0.2c-0.1-0.3-0.3-0.6-0.5-1L87,35.7
		c-0.2-0.3-0.3-0.6-0.5-1l-0.1-0.2c-0.2-0.3-0.4-0.7-0.6-1c0,0-0.1-0.1-0.1-0.1c-0.2-0.3-0.4-0.6-0.7-1c0,0-0.1-0.1-0.1-0.1
		c-0.2-0.3-0.5-0.7-0.7-1c0,0,0-0.1-0.1-0.1c-0.3-0.3-0.5-0.6-0.8-1c-0.3-0.3-0.6-0.6-0.9-0.9c0,0,0,0,0,0c-5-5-11.9-7.7-19.9-7.7
		C46.4,21.8,35,33.1,35,49.3c0,5,1.3,10,3.7,14.3l0.4,0.8c0,0,0,0.1,0,0.1l0.7,1.1c0.1,0.1,0.2,0.2,0.2,0.3l17.6,29.6h0l4.1,6.9
		c0.2,0.4,0.6,0.6,1,0.6c0,0,0,0,0,0c0.4,0,0.8-0.2,1-0.6l4-6.9h0L85,65.9C85.2,65.6,85.3,65.4,85.4,65.2z M78,49.6
		c0,0.1,0,0.3-0.1,0.4l-0.1,0.4c0,0.3-0.1,0.5-0.1,0.7c0,0.2-0.1,0.4-0.1,0.6l-0.1,0.4c0,0.2-0.1,0.4-0.1,0.5
		c-0.1,0.2-0.2,0.5-0.2,0.7L77,53.7c0,0.1-0.1,0.3-0.1,0.4c-0.1,0.3-0.3,0.6-0.4,0.8l-0.1,0.2c0,0.1-0.1,0.2-0.1,0.3
		c-0.2,0.3-0.4,0.7-0.6,1c-0.1,0.1-0.1,0.2-0.2,0.3c-0.2,0.4-0.5,0.7-0.8,1c0,0.1-0.1,0.1-0.1,0.1c-0.3,0.4-0.6,0.7-1,1.1
		c-2.9,3-6.8,4.6-10.9,4.7c-0.1,0-0.1,0-0.2,0c-8.6,0-15.6-7-15.6-15.6c0-8.6,7-15.6,15.6-15.6l0.2,0c4.1,0,8,1.7,10.9,4.6l0.1,0.1
		c0.4,0.4,0.7,0.7,0.9,1c0,0,0.1,0.1,0.1,0.1c0.3,0.4,0.5,0.7,0.8,1.1c0,0.1,0.1,0.1,0.1,0.2c0.3,0.4,0.5,0.7,0.6,1.1
		c0.1,0.1,0.1,0.2,0.1,0.3l0.1,0.1c0.2,0.4,0.3,0.6,0.5,1c0.1,0.1,0.1,0.3,0.1,0.4l0.1,0.4c0.1,0.2,0.2,0.5,0.2,0.7
		c0.1,0.2,0.1,0.3,0.1,0.5l0.1,0.4c0.1,0.2,0.1,0.4,0.1,0.6c0,0.2,0.1,0.5,0.1,0.7l0.1,0.4c0,0.1,0,0.3,0.1,0.4
		c0.1,0.5,0.1,1.1,0.1,1.6C78.1,48.6,78,49.1,78,49.6z"/>
</g>
</svg>
