<?xml version="1.0" encoding="utf-8"?>
<!-- Generator: Adobe Illustrator 23.0.3, SVG Export Plug-In . SVG Version: 6.00 Build 0)  -->
<svg version="1.1" id="Layer_1" xmlns="http://www.w3.org/2000/svg" xmlns:xlink="http://www.w3.org/1999/xlink" x="0px" y="0px"
	 viewBox="0 0 125 125" style="enable-background:new 0 0 125 125;" xml:space="preserve">
<style type="text/css">
	.st0{fill:#4B4D4F;}
</style>
<g>
	<path class="st0" d="M27.7,81.7l30.8-18.2L27.6,45.3v35.3C27.6,81,27.6,81.4,27.7,81.7z"/>
	<path class="st0" d="M59.9,64.4L28.2,83c0.8,1.5,2.4,2.5,4.2,2.5h60.6c2,0,3.7-1.2,4.4-2.9l-31-18.3l-3.3,1.9L59.9,64.4z"/>
	<path class="st0" d="M97.9,80.6V45.8L67.8,63.6l30,17.7C97.9,81.1,97.9,80.9,97.9,80.6z"/>
	<path class="st0" d="M32.5,38.7c-2.7,0-4.9,2.2-4.9,4.9v0.1l35.6,21l34.7-20.5v-0.7c0-2.7-2.2-4.9-4.9-4.9H32.5z"/>
</g>
</svg>
