<?xml version="1.0" encoding="utf-8"?>
<!-- Generator: Adobe Illustrator 23.0.3, SVG Export Plug-In . SVG Version: 6.00 Build 0)  -->
<svg version="1.1" id="Layer_1" xmlns="http://www.w3.org/2000/svg" xmlns:xlink="http://www.w3.org/1999/xlink" x="0px" y="0px"
	 viewBox="0 0 125 125" style="enable-background:new 0 0 125 125;" xml:space="preserve">
<style type="text/css">
	.st0{fill:#4B4D4F;}
</style>
<g>
	<path class="st0" d="M49.8,57.6l2.1-2.4c1.8-1.9,2.7-4.5,2.5-7.1c-0.1-2.6-1.3-5-3.2-6.8l-3.6-3.3c-1.8-1.6-4.1-2.5-6.6-2.5
		c-2.8,0-5.4,1.2-7.3,3.2l-2.1,2.4c-0.3,0.3-0.5,0.6-0.8,1l-0.1,0.1c-2,1.7-3.7,5.9-2.7,11.1c4.6,23.9,24.7,42.1,49,44.3
		c3.2,0.3,6.2-0.4,8.4-1.8c0.9-0.5,1.7-1.2,2.4-1.9l2.1-2.4c3.6-4,3.3-10.2-0.7-13.9l-3.6-3.3c-1.8-1.6-4.1-2.5-6.6-2.5
		c-2.8,0-5.4,1.2-7.3,3.2l-2.1,2.4c-0.9,1-1.6,2.2-2,3.5l-0.2,0.6l-0.6-0.2C57.4,77.5,49.6,70.4,45,61.2l-0.3-0.6l0.7-0.2
		C47.1,59.9,48.6,58.9,49.8,57.6z"/>
	<path class="st0" d="M61.8,29.3c0,1.3,1,2.3,2.3,2.3c16,0,29.1,13.1,29.1,29.1c0,1.3,1,2.3,2.3,2.3c1.3,0,2.3-1,2.3-2.3
		C97.8,42.1,82.7,27,64.1,27C62.8,27,61.8,28,61.8,29.3z"/>
	<path class="st0" d="M61.4,40.5c0,1.3,1,2.3,2.3,2.3C73.8,42.8,82,50.9,82,61c0,1.3,1,2.3,2.3,2.3c1.3,0,2.3-1,2.3-2.3
		c0-12.6-10.2-22.8-22.8-22.8C62.5,38.2,61.4,39.2,61.4,40.5z"/>
</g>
</svg>
