<?xml version="1.0" encoding="utf-8"?>
<!-- Generator: Adobe Illustrator 23.0.3, SVG Export Plug-In . SVG Version: 6.00 Build 0)  -->
<svg version="1.1" id="Layer_1" xmlns="http://www.w3.org/2000/svg" xmlns:xlink="http://www.w3.org/1999/xlink" x="0px" y="0px"
	 viewBox="0 0 125 125" style="enable-background:new 0 0 125 125;" xml:space="preserve">
<style type="text/css">
	.st0{fill:#4B4D4F;}
</style>
<g>
	<path class="st0" d="M43.2,36.5c-1.1,1.4-2.1,3-3,4.6c2.8,1.7,6,3.1,9.4,4.1c0.1-0.6,0.2-1.2,0.3-1.7c1.2-5.6,2.8-10.2,4.9-13.7
		c0.7-1.2,1.5-2.2,2.3-3.1c-1.8,0.5-3.4,1.2-5.1,2.1C48.7,30.6,45.7,33.2,43.2,36.5z"/>
	<path class="st0" d="M51.3,47.5c-0.7,4.2-1.1,8.9-1.1,13.7h25c0-4.9-0.4-9.5-1.1-13.7c-3.6,0.9-7.4,1.3-11.4,1.3
		C58.7,48.9,54.9,48.4,51.3,47.5z"/>
	<path class="st0" d="M62.3,75.6c4.1,0,8.1,0.5,11.8,1.4c0.7-4.2,1.1-8.8,1.1-13.7h-25c0,4.8,0.4,9.4,1.1,13.6
		C54.8,76,58.5,75.6,62.3,75.6z"/>
	<path class="st0" d="M35.1,61.3h13.1c0.1-5.1,0.5-9.9,1.2-14.3c-2.8-0.8-5.5-1.9-7.9-3.1c-0.7-0.4-1.4-0.7-2-1.1
		C36.8,48.1,35.2,54.4,35.1,61.3z"/>
	<path class="st0" d="M39.3,81.6c3-1.8,6.4-3.2,10-4.2c-0.7-4.3-1.1-9.1-1.1-14.1H35C35.2,70,36.7,76.3,39.3,81.6z"/>
	<path class="st0" d="M64.9,26.6c-0.8-0.4-1.5-0.6-2.2-0.6c-0.7,0-1.5,0.2-2.2,0.6c-0.8,0.4-1.5,1.1-2.3,2c-1.5,1.7-2.9,4.4-4.1,7.7
		c-1,2.8-1.8,6-2.5,9.5c3.5,0.9,7.2,1.3,11.1,1.3c3.9,0,7.6-0.5,11.1-1.3c-0.1-0.6-0.2-1.2-0.4-1.8c-1.1-5.4-2.7-9.9-4.6-13
		C67.6,28.8,66.2,27.3,64.9,26.6z"/>
	<path class="st0" d="M51.9,80.7c1.1,5.4,2.7,9.9,4.6,13c1.3,2.1,2.6,3.5,3.9,4.3c0.8,0.4,1.5,0.6,2.2,0.6c0.7,0,1.5-0.2,2.2-0.6
		c0.8-0.4,1.5-1.1,2.3-2c1.5-1.7,2.9-4.4,4.1-7.7c1-2.8,1.8-6,2.5-9.5c-3.6-0.9-7.5-1.4-11.5-1.4c-3.8,0-7.4,0.4-10.8,1.2
		C51.7,79.3,51.8,80,51.9,80.7z"/>
	<path class="st0" d="M41.6,89.3c-1.2-1.6-2.3-3.2-3.3-5c-1.3,0.9-2.5,1.8-3.6,2.8c4.5,5.1,10.4,9,17.2,11c-0.3-0.1-0.6-0.3-0.9-0.4
		C47.5,95.6,44.3,92.8,41.6,89.3z"/>
	<path class="st0" d="M70.6,94.8c-0.7,1.2-1.5,2.2-2.3,3.1c1.7-0.5,3.4-1.2,5.1-2.1c3.3-1.8,6.3-4.4,8.8-7.7c1.1-1.4,2.1-2.9,3-4.5
		c-2.8-1.7-5.9-3.1-9.3-4.2c-0.1,0.6-0.2,1.2-0.3,1.7C74.3,86.6,72.7,91.3,70.6,94.8z"/>
	<path class="st0" d="M36.8,38.8c0.5,0.4,1.1,0.8,1.6,1.2C41.6,34.3,45.9,29.8,51,27c0.3-0.2,0.6-0.3,0.9-0.4
		c-6.6,2-12.4,5.8-16.9,10.8C35.6,37.8,36.2,38.3,36.8,38.8z"/>
	<path class="st0" d="M33.6,85.7c0.6-0.5,1.2-1,1.8-1.5c0.7-0.5,1.4-1,2.1-1.5C34.8,77,33.1,70.4,33,63.3h-7.6
		C25.6,71.8,28.6,79.5,33.6,85.7z"/>
	<path class="st0" d="M74.4,27c3.6,2,6.8,4.8,9.4,8.3c1.1,1.5,2.2,3.1,3.1,4.8c1.3-0.9,2.4-1.8,3.5-2.7c-4.5-5-10.3-8.8-16.9-10.8
		C73.8,26.7,74.1,26.8,74.4,27z"/>
	<path class="st0" d="M49.6,79.2c-2.7,0.8-5.3,1.8-7.7,3c-0.6,0.3-1.2,0.6-1.8,1c3,5.6,7.1,10,11.9,12.6c1.6,0.9,3.3,1.6,5.1,2.1
		c-0.2-0.2-0.3-0.3-0.5-0.5c-1.7-2-3.2-4.9-4.5-8.3C51.1,86.2,50.2,82.8,49.6,79.2z"/>
	<path class="st0" d="M87.8,41.6c2.8,5.7,4.5,12.4,4.7,19.6h7.6c-0.2-8.6-3.3-16.4-8.4-22.6c-0.6,0.6-1.3,1.1-2,1.6
		C89,40.7,88.4,41.2,87.8,41.6z"/>
	<path class="st0" d="M91.5,86.1c5.1-6.2,8.3-14.1,8.5-22.7h-7.6c-0.1,7.3-1.8,14-4.7,19.7C89.1,84,90.3,85,91.5,86.1z"/>
	<path class="st0" d="M33,61.3c0.1-7.2,1.8-13.9,4.7-19.6c-1.4-0.9-2.7-1.9-3.9-3c-5.1,6.2-8.2,14-8.4,22.6H33z"/>
	<path class="st0" d="M83.6,80.6c0.8,0.4,1.6,0.9,2.3,1.3c2.6-5.4,4.2-11.8,4.4-18.6H77.3c0,5.1-0.5,9.9-1.2,14.3
		C78.8,78.4,81.3,79.4,83.6,80.6z"/>
	<path class="st0" d="M74.4,97.6c-0.3,0.2-0.6,0.3-0.9,0.4c6.5-2,12.3-5.7,16.8-10.6c-0.7-0.6-1.4-1.2-2.1-1.8
		c-0.4-0.3-0.9-0.7-1.3-1C83.7,90.3,79.4,94.8,74.4,97.6z"/>
	<path class="st0" d="M68.3,26.7c0.1,0.2,0.3,0.3,0.4,0.5c1.7,2,3.2,4.9,4.5,8.3c1,2.8,1.9,6.1,2.5,9.7c2.6-0.8,5.1-1.8,7.4-2.9
		c0.7-0.4,1.4-0.7,2-1.1c-3-5.5-7.1-9.8-11.8-12.4C71.8,27.9,70.1,27.2,68.3,26.7z"/>
	<path class="st0" d="M77.3,61.3h13.1c-0.1-6.8-1.7-13.2-4.3-18.5c-3,1.8-6.3,3.2-9.9,4.3C76.8,51.4,77.2,56.2,77.3,61.3z"/>
</g>
</svg>
